<?xml version="1.0" encoding="utf-8"?>
<!-- Generator: Adobe Illustrator 21.0.2, SVG Export Plug-In . SVG Version: 6.00 Build 0)  -->
<svg version="1.1" xmlns="http://www.w3.org/2000/svg" xmlns:xlink="http://www.w3.org/1999/xlink" x="0px" y="0px"
	 viewBox="0 0 1004 1064" style="enable-background:new 0 0 1004 1064;" xml:space="preserve">
<g id="Layer_4">
	<g>
		
			<image style="overflow:visible;opacity:0.46;" width="1747" height="1646" xlink:href="1FD7CEA1.png"  transform="matrix(0.48 0 0 0.48 -26.88 -32.96)">
		</image>
		<g>
			<polygon style="fill:#330033;" points="761,333.9 1.2,711.8 321.9,0.3 			"/>
		</g>
	</g>
	<g>
		
			<image style="overflow:visible;opacity:0.46;" width="1312" height="1785" xlink:href="1FD7CEA3.png"  transform="matrix(0.48 0 0 0.48 425.28 246.88)">
		</image>
		<g>
			<polygon style="fill:#330033;" points="1004.4,280.2 665.3,1058.1 453.6,306.9 			"/>
		</g>
	</g>
	<g>
		<g>
			<polygon style="fill:#FFFFFF;" points="782,844.2 194.1,890.7 445.7,332 			"/>
		</g>
		<defs>
			<filter id="Adobe_OpacityMaskFilter" filterUnits="userSpaceOnUse" x="194.1" y="332" width="587.8" height="558.8">
				
					<feColorMatrix  type="matrix" values="-1 0 0 0 1  0 -1 0 0 1  0 0 -1 0 1  0 0 0 1 0" color-interpolation-filters="sRGB" result="source"/>
			</filter>
		</defs>
		<mask maskUnits="userSpaceOnUse" x="194.1" y="332" width="587.8" height="558.8" id="SVGID_1_">
			<g style="filter:url(#Adobe_OpacityMaskFilter);">
				
					<image style="overflow:visible;" width="1235" height="1174" xlink:href="1FD7CEA1.jpg"  transform="matrix(0.48 0 0 0.48 192.12 329.56)">
				</image>
			</g>
		</mask>
		<g style="opacity:0.6;mask:url(#SVGID_1_);">
			<polygon points="782,844.2 194.1,890.7 445.7,332 			"/>
		</g>
	</g>
</g>
<g id="Layer_1">
	<polygon style="opacity:0.8;fill:#CC3333;" points="318.9,545.8 313.5,461.6 492.3,526 	"/>
	<polygon style="fill:#FFCCCC;" points="351.6,557.2 397.7,643 328.4,656 	"/>
	<polygon style="fill:#FFCC66;" points="657,509.1 469.3,420.6 599.1,346.8 	"/>
	<polygon style="fill:#FF9966;" points="443.5,689.8 375.6,694.6 375.2,667.6 	"/>
	<polygon style="fill:#CC3333;" points="410.9,721.6 376.7,720 438.1,701.7 	"/>
	<polygon style="fill:#FFCC66;" points="644.4,363.3 388.7,413.8 523,321.1 	"/>
	<polygon style="opacity:0.8;fill:#CC9933;" points="512.3,718.6 611.1,536.4 628.9,661.3 	"/>
	<polygon style="opacity:0.8;fill:#CC6633;" points="461.9,667.3 396.4,591.8 480,560.1 	"/>
	<polygon style="fill:#CC3333;" points="388.5,742.9 385.7,724.9 418.1,727.4 	"/>
	<polygon style="fill:#CC3333;" points="400.5,780.5 383.3,754.5 410.9,749.4 	"/>
	<polygon style="fill:#CC3333;" points="422.8,780.1 398.4,754.7 429.7,742.8 	"/>
	<polygon style="fill:#FF6633;" points="521.1,724.9 468.2,754.8 461.4,683 	"/>
	<polygon style="opacity:0.8;fill:#FF6633;" points="566.9,581.7 538.3,638.3 483.7,626.4 	"/>
	<polygon style="opacity:0.7;fill:#CC3333;" points="613.5,657.5 541.2,701 568.1,597.3 	"/>
	<polygon style="fill:#FFCC66;" points="459.9,676.3 563.4,590.5 519,719.3 	"/>
	<polygon style="fill:#CC3333;" points="559.7,495.6 500.1,546.3 504.4,509 	"/>
	<polygon style="fill:#CC3333;" points="558,474.6 490.4,497.4 491.3,444.4 	"/>
	<polygon style="opacity:0.6;fill:#CC3333;" points="497.6,428.5 491.1,522 306.4,461.3 	"/>
	<polygon style="opacity:0.6;fill:#CC3333;" points="426,572.4 386.9,551.5 488.1,534.4 	"/>
	<polygon style="fill:#CC3333;" points="346.2,557.1 342.1,581.6 322.3,554.7 	"/>
	<polygon style="fill:#CC3333;" points="436.1,739.8 430.7,780.8 460.6,755.8 	"/>
	<polygon style="fill:#CC3333;" points="364.3,695.8 351.8,665.3 363.2,665.6 	"/>
	<polygon style="fill:#CC3333;" points="429.7,408.9 439.3,438.6 312.8,447.4 	"/>
	<polygon style="opacity:0.9;fill:#666666;" points="369.5,422.1 301.9,441.4 312.2,329.6 	"/>
	<polygon style="opacity:0.9;fill:#666666;" points="517.3,381.3 368,421.8 283.4,363.1 	"/>
	<polygon style="opacity:0.9;fill:#666666;" points="471.1,290.5 578.7,362.3 323.6,335 	"/>
	<polygon style="opacity:0.9;fill:#666666;" points="578.5,381.5 558.9,460.9 514.2,411.5 	"/>
	<polygon points="579.6,503.3 484.5,492.6 493.5,419.5 	"/>
	<polygon style="fill:#666666;" points="620.4,455.2 611.1,536.4 567.9,484.8 	"/>
	<polygon style="opacity:0.7;fill:#CC3333;" points="616.8,643.5 570.8,585.7 621,573.9 	"/>
	<polygon style="fill:#CC3333;" points="569.1,500.9 580.1,571.8 510.3,550.8 	"/>
	<polygon style="fill:#666666;" points="618.2,561 588.3,568.6 581.5,520.5 	"/>
	<polygon style="opacity:0.9;fill:#666666;" points="594.3,355.1 476.3,301.7 587.5,303.5 	"/>
	<polygon style="opacity:0.9;fill:#666666;" points="568.4,472.9 597.2,374.4 631.1,440 	"/>
	<polygon style="opacity:0.9;fill:#666666;" points="601.8,363.6 599.7,316.9 646.4,355.7 	"/>
	<polygon style="fill:#666666;" points="666.4,450.7 605.2,452 631.6,367.3 	"/>
	<polygon style="fill:#666666;" points="679.1,501.5 631,459 671.1,440.2 	"/>
	<polygon style="fill:#666666;" points="630.5,462 621.6,532.5 665.8,505.7 	"/>
	<polygon style="opacity:0.9;fill:#666666;" points="631.7,415.8 607.4,372.1 641.8,367.7 	"/>
	<polygon style="fill:#993300;" points="432,658.2 397.7,643 385.7,595.9 	"/>
	<polygon style="fill:#CC3333;" points="375.5,704.6 376.7,690.6 440.5,691.6 	"/>
	<polygon style="fill:#CC3333;" points="378.2,704.8 364,695.4 368.7,689.6 	"/>
	<polygon style="fill:#CC6633;" points="376.3,723.7 368,701.5 380.2,708.6 	"/>
	<polygon style="fill:#993300;" points="377.7,692.7 368.6,668 381.1,668.3 	"/>
	<polygon style="fill:#FFCC99;" points="380.8,693.2 362.2,693.2 361.9,666.3 	"/>
	<polygon style="opacity:0.5;fill:#CC6633;" points="365.6,668.8 331.2,651.8 374.6,645 	"/>
	<polygon style="opacity:0.9;fill:#FFCC99;" points="484.5,533 358.6,555.9 382.3,519.4 	"/>
	<polygon style="opacity:0.9;fill:#FFCC99;" points="351.2,556.4 317.7,552.2 320.2,524.8 	"/>
	<polygon style="fill:#FFCC99;" points="352.8,560.2 333.6,537.9 373,533.4 	"/>
	<polygon style="opacity:0.9;fill:#FFCC99;" points="439.1,435.8 309.8,461 305.2,437.5 	"/>
	<polygon style="opacity:0.9;fill:#FFCC99;" points="488.3,390.2 309.9,450.7 307.8,438.6 	"/>
	<polygon style="opacity:0.9;fill:#FFCC99;" points="520.9,425 509.5,391.6 431.4,403.5 	"/>
	<polygon style="opacity:0.9;fill:#FFCCCC;" points="499.4,450.6 400.4,466.6 404.9,429.7 	"/>
	<polygon style="opacity:0.7;fill:#FFCCCC;" points="463.7,694.3 477,561.8 572.7,549.1 	"/>
	<polygon style="fill:#FFCCCC;" points="477.3,698.1 431.8,681.7 434.5,652.9 	"/>
	<polygon style="opacity:0.9;fill:#FFCCCC;" points="424.3,589.3 386.4,618.3 355.5,558 	"/>
	<polygon style="opacity:0.5;fill:#CC6633;" points="349.2,569.8 327.4,651.9 344.9,655.7 	"/>
	<polygon style="opacity:0.5;fill:#CC6633;" points="374.6,625.4 359.6,632.2 386.5,627.1 	"/>
	<polygon style="opacity:0.9;fill:#FFCCCC;" points="557.7,381.4 458.7,397.4 463.1,360.5 	"/>
	<polygon style="opacity:0.9;fill:#666666;" points="486.9,367.9 318.1,369.2 343.9,309.2 	"/>
	<polygon style="opacity:0.3;fill:#FFCC66;" points="450.5,390.9 342.1,389.7 421.7,358.5 	"/>
	<polygon style="opacity:0.9;fill:#333333;" points="507.8,392.2 407.1,349.7 499.2,357.4 	"/>
	<polygon style="opacity:0.9;fill:#333333;" points="547.5,398.9 454.3,341.9 544.3,363.2 	"/>
	<polygon style="opacity:0.9;fill:#333333;" points="445.5,351.9 373.8,330 437.2,328.7 	"/>
	<polygon style="opacity:0.9;fill:#333333;" points="503.4,348.3 434.3,319.2 497.5,324.4 	"/>
	<polygon style="opacity:0.5;fill:#FFCC66;" points="604.1,552.7 491.1,499.5 569.2,455 	"/>
	<polygon style="opacity:0.8;fill:#993300;" points="459.2,702.2 435.9,689.7 445.4,681.7 	"/>
	<polygon style="opacity:0.6;fill:#CC3333;" points="446.9,588 373.3,566.3 483.7,559.6 	"/>
	<polygon style="opacity:0.6;fill:#CC3333;" points="500.5,555.5 465.5,573.6 492.7,526.9 	"/>
	<polygon style="opacity:0.6;fill:#CC3333;" points="388.1,529.3 492.7,526.9 387.8,550.9 	"/>
	<polygon style="opacity:0.6;fill:#CC3333;" points="387.7,528.4 393.9,548.4 349.2,542 	"/>
	<polygon style="opacity:0.8;" points="353.5,546.5 468.7,517.8 384.3,526.4 	"/>
	<polygon style="opacity:0.8;" points="317.1,546.4 345.5,551.6 320.1,537.6 	"/>
	<polygon style="opacity:0.7;fill:#FFCCCC;" points="475.1,682.6 389.8,617.2 456.8,583.7 	"/>
	<polygon style="opacity:0.7;fill:#CC9966;" points="351,667 451,691 373.9,647.3 	"/>
	<polygon style="opacity:0.6;fill:#CC6633;" points="435.9,689.7 378.2,651.1 439.7,592.3 	"/>
	<polygon style="opacity:0.7;fill:#FFCCCC;" points="398.4,754.7 427.4,778 544.3,691.4 	"/>
	<polygon style="opacity:0.7;fill:#FFCCCC;" points="375.9,752.7 400.5,780.5 389.6,750.1 	"/>
	<polygon style="opacity:0.9;fill:#FFCCCC;" points="417.9,778.1 392.4,750.9 404.2,781 	"/>
	<polygon style="fill:#FFFFFF;" points="416.3,576.2 391.4,563.7 464.3,552.1 	"/>
	<polygon style="opacity:0.9;fill:#FFCCCC;" points="491,422.8 392,438.8 396.4,401.9 	"/>
	<polygon style="fill:#FFFFFF;" points="340,576.2 327.3,562.4 348.9,560.6 	"/>
	<polygon style="fill:#333333;" points="420.3,560.1 419.2,577.5 391.4,563.7 	"/>
	<polygon style="opacity:0.6;fill:#666666;" points="528.6,446.3 437.3,456.8 425.3,377.6 	"/>
	<polygon style="opacity:0.7;fill:#CC3333;" points="399.3,559.3 354,547.9 403.6,532.7 	"/>
	<polygon style="opacity:0.5;fill:#FFCC66;" points="551.8,644.1 505.7,528 593.1,548.9 	"/>
	<polygon style="opacity:0.9;fill:#FFCCCC;" points="507.9,552.3 454.4,454.7 510.9,449.6 	"/>
	<polygon style="opacity:0.5;fill:#FFCC66;" points="522,549.2 432.8,461.7 521.2,445.5 	"/>
	<polygon style="opacity:0.9;fill:#333333;" points="550.8,385.9 519,469.5 515.8,392.8 	"/>
	<polygon style="opacity:0.9;fill:#333333;" points="527,399.7 465.4,452.3 502.8,395.2 	"/>
	<polygon style="opacity:0.9;fill:#333333;" points="507,398.8 436.4,438.5 484,389.7 	"/>
	<polygon style="opacity:0.9;fill:#333333;" points="480.4,395.4 399.5,399.7 463.8,377.1 	"/>
	<polygon style="opacity:0.5;fill:#FFCC66;" points="525,709.1 578.3,544.6 618.4,650.5 	"/>
	<polygon style="opacity:0.5;fill:#FFFFCC;" points="399.5,613.8 355.7,562.1 391.4,560.3 	"/>
	<polygon style="opacity:0.5;fill:#993300;" points="395.2,648.9 348.2,654.8 370.5,640.3 	"/>
	<polygon style="opacity:0.4;fill:#663300;" points="399,564.9 376.3,541.8 398.1,537.5 	"/>
	<polygon style="opacity:0.7;fill:#663300;" points="439.9,541.1 392.8,558.9 392.4,546.6 	"/>
	<polygon style="opacity:0.7;" points="589.8,540.2 559.7,495.6 622.6,497.7 	"/>
	<polygon style="opacity:0.8;" points="676.4,501.1 584.8,498.5 642.7,444.7 	"/>
	<polygon style="opacity:0.9;fill:#333333;" points="587.6,378.3 564.3,474.6 550.1,390.7 	"/>
	<polygon style="opacity:0.9;fill:#333333;" points="617.3,369.1 594,465.5 579.8,381.6 	"/>
	<polygon style="opacity:0.8;fill:#333333;" points="575.4,381.5 500.3,316.8 581.5,342.4 	"/>
	<polygon style="opacity:0.9;fill:#666666;" points="331.5,420.5 299.2,427.4 297.4,363.8 	"/>
	<polygon style="opacity:0.7;fill:#333333;" points="462.3,310.3 610,317.5 493.1,272.9 	"/>
	<polygon style="opacity:0.7;fill:#333333;" points="373.8,318.2 515.8,282.9 392.2,293.5 	"/>
	<polygon style="opacity:0.7;fill:#333333;" points="376.9,402.3 322.8,342.1 404.4,355.9 	"/>
	<polygon style="fill:#333333;" points="345.4,568 344.1,579.9 330.8,567 	"/>
	<polygon style="opacity:0.4;fill:#663300;" points="347.8,582.2 325.1,559.1 346.9,554.8 	"/>
	<polygon style="fill:#333333;" points="340.5,566.8 330.4,573.8 324,573.6 	"/>
	<polygon style="fill:#333333;" points="420.3,560.1 419.2,577.5 391.4,563.7 	"/>
	<polygon style="fill:#333333;" points="443.6,555.3 438.6,558.7 418.2,560.6 	"/>
	<polygon style="fill:#333333;" points="445.9,559.4 442.3,564.3 423.7,572.9 	"/>
	<polygon style="opacity:0.8;fill:#333333;" points="671.5,455.5 612,391.9 673.4,394.1 	"/>
	<polygon style="opacity:0.9;fill:#333333;" points="627.7,392.3 624.8,335.2 665.4,394.5 	"/>
	<polygon style="opacity:0.9;fill:#333333;" points="583.1,339.7 571,280.8 624.4,342.7 	"/>
	<polygon style="opacity:0.7;fill:#333333;" points="497.2,275.7 602.6,315 571.9,280.4 	"/>
	<polygon style="opacity:0.9;fill:#333333;" points="615,291.6 636.5,347.7 573.7,295.3 	"/>
	<polygon style="opacity:0.9;fill:#333333;" points="666.5,360.9 666.1,421 626.8,349.4 	"/>
	<polygon style="opacity:0.9;fill:#666666;" points="666.8,361.1 630.9,359.6 624.2,310.5 	"/>
	<polygon style="opacity:0.8;fill:#CC6633;" points="487.7,770 437.4,778.3 553.8,698.2 	"/>
	<polygon style="opacity:0.5;fill:#330000;" points="569.8,695.2 529.7,714.4 616,660.3 	"/>
	<polygon style="opacity:0.5;fill:#330000;" points="488.7,768.8 453.8,776.4 552.5,704.2 	"/>
	<polygon style="opacity:0.5;fill:#FFCC66;" points="498.5,762.5 661.5,553.2 672.5,704.1 	"/>
	<polygon style="opacity:0.5;fill:#FFCC66;" points="501.2,774.4 641.1,691.1 541.3,778 	"/>
	<polygon style="opacity:0.5;fill:#FFCC66;" points="665.8,626.8 608.8,716.8 669.2,662.2 	"/>
	<polygon style="opacity:0.5;fill:#FFCC66;" points="548.7,780 634.7,721.2 585.1,782.4 	"/>
	<polygon style="opacity:0.5;fill:#FFCC66;" points="670,652.7 618.8,743.6 675,686.3 	"/>
	<polygon style="opacity:0.5;fill:#663300;" points="499.5,763.7 591.5,787.3 516.4,777.4 	"/>
	<polygon style="opacity:0.7;fill:#FFFFFF;" points="467.5,617.6 473.3,559.8 515.1,554.2 	"/>
	<polygon style="opacity:0.7;fill:#FFFFFF;" points="374.3,636.9 344.8,645.8 345.2,631.7 	"/>
	<polygon style="opacity:0.7;fill:#FFFFFF;" points="386.1,626.5 366.6,633.1 374.8,641.5 	"/>
	<polygon style="opacity:0.7;fill:#FFFFFF;" points="360.7,607.7 349,624.7 360.5,626.6 	"/>
</g>
<g id="Layer_3">
	<path d="M712.5,561.6c0.7,42.8-26.3,77.9-60.3,78.5c-34,0.6-60.2-39.1-62.9-76.4c-3.1-42.7,13-76.1,60.3-78.5
		C698.7,482.2,711.8,518.8,712.5,561.6z"/>
	<path style="fill:#CCCCCC;" d="M721.6,565.7c0.7,42.8-26.3,77.9-60.3,78.5c-34,0.6-60.2-39.1-62.9-76.4
		c-3.1-42.7,13-76.1,60.3-78.5C707.7,486.2,720.9,522.9,721.6,565.7z"/>
	<path d="M715.5,571.2c0.5,30.6-18.8,55.6-43.1,56.1c-24.3,0.4-43-27.9-44.9-54.6c-2.2-30.5,9.3-54.3,43.1-56.1
		C705.7,514.4,715,540.6,715.5,571.2z"/>
	<path style="fill:#333333;" d="M716.3,572.3c0.4,27.1-16.7,49.4-38.2,49.8c-21.6,0.4-38.1-24.8-39.9-48.5
		c-2-27.1,8.3-48.2,38.2-49.8C707.6,521.9,715.9,545.1,716.3,572.3z"/>
</g>
<g id="Layer_9" style="display:none;">
	<rect x="171" y="-14" style="display:inline;opacity:0.3;" width="833" height="1118"/>
</g>
<g id="Layer_5" style="display:none;">
	<g style="display:inline;">
		
			<image style="overflow:visible;opacity:0.49;" width="1329" height="1403" xlink:href="1FD7CEA7.png"  transform="matrix(0.48 0 0 0.48 166.4956 444.7319)">
		</image>
		<g>
			<polygon style="fill:#330033;" points="779.8,616.4 576.5,1091.5 473,733.5 177.6,882.8 367.1,455.1 596.4,626.5 			"/>
			<polygon style="fill:none;stroke:#FFFF00;stroke-width:3;stroke-miterlimit:10;" points="779.8,616.4 576.5,1091.5 473,733.5 
				177.6,882.8 367.1,455.1 596.4,626.5 			"/>
		</g>
	</g>
	<g style="display:inline;">
		<g>
			<polygon style="fill:#FFFFFF;" points="630.1,957.9 286.4,987.6 431.3,659.7 			"/>
		</g>
		<defs>
			<filter id="Adobe_OpacityMaskFilter_1_" filterUnits="userSpaceOnUse" x="286.4" y="659.7" width="343.7" height="327.9">
				
					<feColorMatrix  type="matrix" values="-1 0 0 0 1  0 -1 0 0 1  0 0 -1 0 1  0 0 0 1 0" color-interpolation-filters="sRGB" result="source"/>
			</filter>
		</defs>
		<mask maskUnits="userSpaceOnUse" x="286.4" y="659.7" width="343.7" height="327.9" id="SVGID_2_">
			<g style="filter:url(#Adobe_OpacityMaskFilter_1_);">
				
					<image style="overflow:visible;" width="725" height="692" xlink:href="1FD7CEA2.jpg"  transform="matrix(0.48 0 0 0.48 284.4019 657.6758)">
				</image>
			</g>
		</mask>
		<g style="opacity:0.55;mask:url(#SVGID_2_);">
			<polygon points="630.1,957.9 286.4,987.6 431.3,659.7 			"/>
		</g>
	</g>
	<polygon style="display:inline;fill:#330033;" points="239.6,1087.9 176.2,998.6 284.5,988.4 	"/>
	<polygon style="display:inline;fill:#330033;" points="821.3,1007.4 822.9,966.8 857.3,988.5 	"/>
	<polygon style="display:inline;fill:#330033;" points="844.2,930.1 869.4,865.7 912.6,919.7 	"/>
	
		<image style="overflow:visible;" width="400" height="400" xlink:href="1FD7CEA3.jpg"  transform="matrix(0.1527 0 0 0.1527 808.9971 1025.4688)">
	</image>
	<polygon style="display:inline;fill:#330033;" points="755.1,749.7 887.7,779.1 796,879.2 	"/>
	
		<image style="overflow:visible;" width="555" height="523" xlink:href="1FD7CEAE.jpg"  transform="matrix(8.482800e-02 0 0 8.482800e-02 751.2451 1033.8203)">
	</image>
</g>
<g id="Layer_7" style="display:none;">
	<g style="display:inline;">
		
			<image style="overflow:visible;opacity:0.49;" width="1368" height="1326" xlink:href="1FD7CEAF.png"  transform="matrix(0.48 0 0 0.48 368.625 -14.7363)">
		</image>
		<g>
			<polygon style="fill:#330033;" points="1000.6,123.6 788.9,595.1 699.1,262.5 379.7,424.8 568.6,-4.4 751.2,133 			"/>
			<polygon style="fill:none;stroke:#FFFF00;stroke-width:3;stroke-miterlimit:10;" points="1000.6,123.6 788.9,595.1 699.1,262.5 
				379.7,424.8 568.6,-4.4 751.2,133 			"/>
		</g>
	</g>
	<g style="display:inline;">
		
			<image style="overflow:visible;opacity:0.28;" width="632" height="234" xlink:href="1FD7CEA2.png"  transform="matrix(0.48 0 0 0.48 439.68 434.56)">
		</image>
		<g>
			<text transform="matrix(1 0 0 1 435.8086 466.7705)"><tspan x="0" y="0" style="fill:#330033; font-family:'Vitreous-Light'; font-size:48px;">KAmble </tspan><tspan x="0" y="57.6" style="fill:#330033; font-family:'Vitreous-Light'; font-size:48px; letter-spacing:21;">			</tspan><tspan x="108" y="57.6" style="fill:#330033; font-family:'Vitreous-Light'; font-size:48px;">Sanket</tspan></text>
		</g>
	</g>
</g>
<g id="Layer_8" style="display:none;">
	
		<line style="display:inline;fill:none;stroke:#330033;stroke-width:2;stroke-miterlimit:10;" x1="438" y1="464" x2="438" y2="373"/>
	
		<line style="display:inline;fill:none;stroke:#330033;stroke-width:2;stroke-miterlimit:10;" x1="723" y1="656" x2="723" y2="494"/>
	<line style="display:inline;fill:none;stroke:#330033;stroke-miterlimit:10;" x1="517.9" y1="460" x2="572.6" y2="514"/>
	<line style="display:inline;fill:none;stroke:#330033;stroke-miterlimit:10;" x1="584.9" y1="464" x2="636.6" y2="515"/>
	<g style="display:inline;">
		
			<image style="overflow:visible;opacity:0.43;" width="634" height="983" xlink:href="9A30DD5A.png"  transform="matrix(0.48 0 0 0.48 196.8 117.28)">
		</image>
		<g>
			
				<text transform="matrix(0.4461 -0.895 0.895 0.4461 258.6906 557.726)" style="fill:#330033; font-family:'Vitreous-Outline'; font-size:79.5909px;">Portfolio</text>
		</g>
	</g>
	
		<text transform="matrix(0.4396 -0.8982 0.8982 0.4396 236.8809 616.5695)" style="display:inline;opacity:0.1;fill:#330033; font-family:'Vitreous-Black'; font-size:98.9572px;">Portfolio</text>
</g>
<g id="Layer_6" style="display:none;">
	<g style="display:inline;opacity:0.8;">
		
			<image style="overflow:visible;" width="2008" height="2008" xlink:href="9A30DD5D.png"  transform="matrix(2.342400e-02 0 0 2.342400e-02 878.5898 1032.4854)">
		</image>
	</g>
</g>
</svg>
